# xmcd
#
# Track frame offsets:
# 150
# 23066
# 33053
# 45171
# 62572
# 83877
# 103524
# 124056
# 134335
# 148975
# 168409
# 191141
# 208724
# 223514
# 239768
# 259000
# 271836
# 284004
# 294358
#
# Disc length: 4259 seconds
#
#
# Revision: 0
# Processed by: cddbd v1.5.2PL0 Copyright (c) Steve Scherf et al.
# Submitted via: FreeRIP 2.95 
#
DISCID=1e10a113
DTITLE=Limao Com Mel - Acústico in Concert
DYEAR=2007
DGENRE=Popular
TTITLE0=Um amor de novela
TTITLE1=Voltei
TTITLE2=Veneno
TTITLE3=Jogo Marcado
TTITLE4=Brinquedo de amor
TTITLE5=Paixão x Paixão
TTITLE6=Como eu te amo
TTITLE7=Minha vida sem você
TTITLE8=Não quero mais
TTITLE9=Não é o fim
TTITLE10=A noite mais linda
TTITLE11=Você no coração
TTITLE12=Toda sua
TTITLE13=Anjo querubim
TTITLE14=Metade da metade
TTITLE15=The boxer
TTITLE16=Vivendo de solidão
TTITLE17=Fantasias
TTITLE18=O farol
EXTD=
EXTT0=
EXTT1=
EXTT2=
EXTT3=
EXTT4=
EXTT5=
EXTT6=
EXTT7=
EXTT8=
EXTT9=
EXTT10=
EXTT11=
EXTT12=
EXTT13=
EXTT14=
EXTT15=
EXTT16=
EXTT17=
EXTT18=
PLAYORDER=
